<svg version="1.1" xmlns="http://www.w3.org/2000/svg" style="display: block;" viewBox="0 0 2048 2048" width="1024" height="1024">
<path transform="translate(0,0)" fill="rgb(135,133,84)" d="M 1718.24 1569.7 L 1722.97 1570.47 L 1723.24 1572.08 C 1722.37 1573.09 1721.36 1574.45 1720.23 1575.23 C 1717.71 1577 1715.85 1576.67 1713 1576.2 C 1709.45 1573.35 1707.86 1571.2 1706.28 1566.97 C 1705.97 1566.13 1705 1562.57 1704.55 1562.1 C 1703.78 1561.31 1702.42 1561.54 1701.36 1561.24 C 1696.36 1559.82 1689.35 1557.71 1687.08 1552.35 C 1685.38 1548.35 1687.38 1541.58 1689.25 1538 L 1690.09 1538.29 C 1691.6 1543.2 1692.33 1546.77 1697.28 1549.16 C 1700.73 1550.82 1706.43 1549.92 1710 1548.95 L 1711.59 1550.5 L 1711.27 1551.98 C 1710.33 1556.41 1709.32 1560.39 1711.99 1564.43 C 1713.49 1566.72 1716 1568.22 1718.24 1569.7 z"/>
<path transform="translate(0,0)" fill="rgb(135,133,84)" d="M 1117.57 413.047 C 1121.72 416.917 1125.67 418.702 1130.83 420.991 L 1106.11 443.341 L 1078.33 420.333 L 1090.65 410.852 L 1091.68 411.767 C 1098.36 417.798 1101.85 424.855 1105.99 432.716 C 1109.45 426.207 1112.46 418.357 1117.57 413.047 z"/>
<path transform="translate(0,0)" fill="rgb(135,133,84)" d="M 1729.5 1351.09 C 1730.36 1346.1 1730.04 1339.44 1731.34 1334.79 C 1732.49 1330.69 1770.03 1294.37 1775.37 1288.98 C 1778.51 1290.06 1780.68 1290.57 1782.59 1293.5 C 1781.6 1298.16 1775.43 1303.25 1772.13 1306.67 L 1740.31 1339.18 C 1736.57 1343.03 1733.39 1347.44 1729.5 1351.09 z"/>
<path transform="translate(0,0)" fill="rgb(135,133,84)" d="M 1442.02 429.26 C 1442.89 433.756 1443.18 437.004 1442.34 441.5 C 1438.72 460.866 1427.76 474.527 1411.62 485.718 C 1396.97 495.886 1376.36 503.433 1358.75 505.389 C 1354.46 505.866 1348.73 506.67 1344.5 505.819 C 1343.13 505.543 1342.2 504.835 1341.1 504.034 L 1340.18 501.935 L 1340.97 502.315 C 1343.61 503.188 1348.75 501.341 1351.41 500.71 C 1368.2 496.737 1385.17 491.559 1400.05 482.608 C 1411.28 475.849 1424.71 466.681 1431.92 455.5 C 1436.34 448.638 1438.65 440.826 1440.6 432.978 L 1442.02 429.26 z"/>
<path transform="translate(0,0)" fill="rgb(135,133,84)" d="M 360.426 735.079 C 376.788 754.116 392.589 764.789 416.642 772.007 C 422.126 773.653 428.271 775.839 433.956 776.561 L 428.678 787.861 L 426.914 791.961 C 420.688 789.72 414.168 788.388 408 785.911 C 394.704 780.572 381.035 771.025 372.427 759.503 L 371.614 758.384 C 367.181 752.358 359.717 742.77 360.426 735.079 z"/>
<path transform="translate(0,0)" fill="rgb(135,133,84)" d="M 1459.99 1346.7 L 1476.03 1353.74 C 1515.86 1367.51 1552.9 1362.64 1590.38 1344.5 L 1591.29 1345 C 1592.6 1345.67 1592.05 1345.51 1593.5 1345.51 C 1581.85 1360.38 1550.79 1369.67 1532.66 1371.67 C 1513.53 1373.77 1492.08 1373.01 1473.91 1366.09 C 1469.09 1364.26 1464.78 1361.42 1460.03 1359.48 L 1459.99 1346.7 z"/>
<path transform="translate(0,0)" fill="rgb(242,232,207)" d="M 1090.65 410.852 L 1072.42 400.557 C 1078.39 398.061 1086.78 395.461 1091.76 391.452 C 1098.33 386.157 1101.9 377.293 1105.46 369.853 C 1110.44 381.849 1112.7 389.848 1125 396.11 C 1128.8 398.045 1133.05 399.624 1136.45 402.195 L 1117.57 413.047 C 1112.46 418.357 1109.45 426.207 1105.99 432.716 C 1101.85 424.855 1098.36 417.798 1091.68 411.767 L 1090.65 410.852 z"/>
<path transform="translate(0,0)" fill="rgb(242,232,207)" d="M 1842.34 543.5 C 1843.06 543.636 1843.96 543.407 1844.5 543.909 C 1845.04 544.42 1846.13 547.466 1846.52 548.309 C 1848.38 552.304 1850.13 557.154 1852.99 560.49 C 1858.17 566.537 1868.52 569.885 1875.35 574.214 C 1869.74 577.134 1853.27 583.311 1850.91 589.187 C 1848.64 594.839 1846.76 600.204 1843.66 605.5 C 1842.41 604.975 1842.92 605.355 1841.93 604.052 C 1837.97 598.855 1837.31 589.26 1832.8 584.795 C 1827.58 579.625 1817.77 579.551 1812.42 574.344 C 1817.25 568.653 1826.98 567.982 1832.61 563.192 C 1836.42 559.955 1840.01 548.341 1842.34 543.5 z"/>
<path transform="translate(0,0)" fill="rgb(135,133,84)" d="M 1617.33 1692.84 L 1620.1 1693.49 L 1620.49 1695 C 1617 1701.52 1609.37 1707.07 1602.94 1710.5 C 1591.5 1716.6 1575.45 1718.45 1562.93 1714.55 L 1561.5 1714.08 C 1552.15 1711.15 1544.3 1707.06 1537.34 1700.08 C 1527.82 1690.54 1521.77 1677.45 1521.88 1663.87 C 1521.94 1656.48 1522.74 1650.98 1528.14 1645.7 C 1528.82 1662.97 1532.92 1677.13 1545.97 1689.09 C 1556.53 1698.78 1570.08 1704.39 1584.54 1703.85 C 1596.73 1703.39 1607.25 1699.46 1617.33 1692.84 z"/>
<path transform="translate(0,0)" fill="rgb(135,133,84)" d="M 283.441 1366.14 C 285.74 1369.99 285.091 1374.78 284.125 1379.02 C 281.374 1391.07 272.761 1406.32 261.674 1412.7 L 259 1414.07 L 257.608 1414.8 C 246.358 1420.53 231.637 1421.7 219.5 1418.46 L 217.885 1418.04 C 205.472 1414.69 194.552 1405.74 188.204 1394.61 C 184.384 1387.91 180.353 1378.47 181.724 1370.73 L 183.506 1368.77 L 187.546 1378.47 C 193.913 1390.16 205.733 1399.29 218.486 1402.93 C 232.733 1407.01 249.333 1404.59 262.046 1397.05 C 273.738 1390.11 280.089 1378.95 283.441 1366.14 z"/>
<path transform="translate(0,0)" fill="rgb(242,232,207)" d="M 1208.1 164.5 C 1211.58 164.307 1211.3 166.156 1212.81 169.017 C 1216 175.085 1219.18 182.54 1224.54 186.966 C 1229.51 191.069 1237.54 193.611 1243.43 196.451 C 1236.41 199.76 1227.24 202.936 1221.5 208.147 C 1215.86 213.272 1215.35 225.392 1209.5 228.867 C 1203.72 223.957 1202.67 214.063 1197.19 208.361 C 1191.49 202.43 1179.55 201.411 1175.5 195.582 C 1178.48 193.295 1183.01 192.486 1186.5 191.034 C 1199.39 185.677 1203.15 176.538 1208.1 164.5 z"/>
<path transform="translate(0,0)" fill="rgb(242,232,207)" d="M 728.351 1752.97 C 734.056 1766.82 738.203 1775.18 752.08 1782.49 C 754.632 1783.83 758.279 1785.14 760.17 1787.25 C 753.475 1790.56 745.511 1793.89 740.201 1799.2 C 735.277 1804.13 732.323 1816.25 727.003 1819.5 C 724.589 1817.44 723.94 1814.42 722.829 1811.56 C 717.449 1797.72 706.546 1793.62 694.246 1787.71 C 695.28 1786.09 699.179 1784.53 700.981 1783.54 C 706.06 1780.77 710.944 1778.24 715.14 1774.14 C 720.804 1768.6 724.103 1759.73 728.351 1752.97 z"/>
<path transform="translate(0,0)" fill="rgb(135,133,84)" d="M 298.649 769.02 C 301.715 772.921 301.027 777.514 300.483 782.364 C 299.554 790.646 295.912 796.848 291.523 803.739 C 284.695 814.458 273.975 820.6 262 824.093 L 260.422 824.569 C 247.528 828.256 230.938 825.787 219.5 818.956 C 207.631 811.867 199.102 798.916 195.968 785.594 C 195.3 782.753 195.707 781.915 196.606 779.168 C 204.608 793.315 213.812 802.86 229.57 808.157 C 243.455 812.824 258.688 811.022 271.581 804.232 C 285.671 796.812 294.071 783.818 298.649 769.02 z"/>
<path transform="translate(0,0)" fill="rgb(135,133,84)" d="M 1600.53 379.919 C 1604.06 385.542 1603.61 393.741 1602.15 400.217 C 1598.72 415.47 1587.08 430.062 1573.68 437.787 C 1558.17 446.735 1538.87 449.153 1521.57 444.373 C 1503.14 439.28 1487.17 427.407 1477.98 410.594 C 1476.6 408.064 1475.63 405.842 1475.1 403 L 1476.41 400.014 C 1486.43 414.539 1498.46 423.909 1515.41 428.972 C 1532.74 434.148 1550.61 433.034 1566.57 424.269 C 1584.53 414.407 1594.86 399.379 1600.53 379.919 z"/>
<path transform="translate(0,0)" fill="rgb(18,47,61)" d="M 1155.07 519.661 L 1193.64 539.835 L 1201.73 545.152 C 1198.03 550.996 1194.21 556.851 1191.42 563.203 C 1186.75 566.066 1178.59 564.927 1172.95 565.06 L 1130 565.952 L 1143.35 542.207 L 1152.43 528.299 C 1153.15 527.209 1155.4 524.579 1155.56 523.573 C 1155.78 522.276 1155.23 520.965 1155.07 519.661 z"/>
<path transform="translate(0,0)" fill="rgb(242,232,207)" d="M 1690.09 1538.29 C 1691.91 1534.08 1693.93 1529.9 1698.63 1528.33 C 1702.18 1527.15 1707.37 1527.8 1711.09 1528.06 C 1711.39 1523.04 1710.78 1514.9 1714.5 1511.16 C 1717.06 1508.59 1720.39 1507.51 1724 1507.8 C 1727.09 1508.05 1729.22 1510.64 1730.88 1513 C 1733.65 1516.95 1732.81 1522.42 1732.29 1526.93 C 1738.86 1530.99 1749.21 1523.97 1752.74 1535.72 C 1753.66 1538.8 1752.91 1542.44 1751.17 1545.07 C 1749.36 1547.8 1746.7 1549.1 1743.53 1549.56 C 1739.55 1550.14 1735.42 1549.11 1731.37 1549.39 C 1731.6 1555.74 1734.22 1561.71 1728.85 1566.85 C 1725.87 1569.7 1722.16 1569.45 1718.24 1569.7 C 1716 1568.22 1713.49 1566.72 1711.99 1564.43 C 1709.32 1560.39 1710.33 1556.41 1711.27 1551.98 L 1711.59 1550.5 L 1710 1548.95 C 1706.43 1549.92 1700.73 1550.82 1697.28 1549.16 C 1692.33 1546.77 1691.6 1543.2 1690.09 1538.29 z"/>
<path transform="translate(0,0)" fill="rgb(135,133,84)" d="M 1554.7 607.796 C 1557.33 611.622 1559.5 615.741 1561.25 620.044 C 1554.22 631.174 1540.72 641.736 1531.34 651.275 L 1482.11 700.699 C 1474.43 708.187 1466.82 716.805 1458.01 722.871 C 1457.97 715.476 1458.51 707.477 1457.08 700.232 L 1458.07 701.504 L 1459.5 701.649 L 1554.7 607.796 z"/>
<path transform="translate(0,0)" fill="rgb(135,133,84)" d="M 470.768 352.855 C 473.64 365.501 478.503 377.516 489.899 384.939 C 495.539 388.614 503.353 390.319 509.945 388.7 C 513.52 387.822 517.168 385.474 520.385 383.705 L 520.631 385.379 C 522.364 396.776 525.163 407.722 534.851 415.066 C 541.818 420.347 551.142 421.867 559.639 420.5 C 564.057 419.789 567.889 418.38 571.86 416.364 C 570.855 423.909 568.597 428.491 564.121 434.619 C 554.746 437.912 544.84 439.56 535.32 435.617 C 522.623 430.359 517.544 419.13 512.762 407.109 C 503.561 407.823 493.721 407.606 485.447 403.022 C 477.12 398.409 470.568 390.23 467.977 381.034 C 465.383 371.825 466.094 361.304 470.768 352.855 z"/>
<path transform="translate(0,0)" fill="rgb(56,102,65)" d="M 1104.57 202.931 C 1105.16 220.182 1101.57 238.519 1092.82 253.5 C 1076.32 281.778 1044.31 285.58 1015.5 293.424 L 1014.44 293.334 C 1014.92 290.322 1018.66 286.589 1020.68 284.208 C 1039.15 262.434 1065.67 248.83 1085.87 228.794 C 1093.7 221.029 1099.15 212.462 1104.57 202.931 z"/>
<path transform="translate(0,0)" fill="rgb(135,133,84)" d="M 1860.93 1173.02 C 1861.16 1175.35 1860.96 1177.32 1860.44 1179.58 C 1858.1 1189.68 1852.24 1198.14 1843.22 1203.45 C 1831.41 1210.4 1817.8 1208.74 1805.23 1205.28 L 1800.41 1210.32 C 1792.05 1218.67 1784.49 1222.11 1772.58 1221.94 C 1762.84 1221.8 1752.93 1219.06 1746.09 1211.85 C 1736.22 1201.44 1736.55 1189.64 1736.9 1176.23 C 1731.32 1175.57 1725.65 1174.96 1720.4 1172.82 C 1710.97 1168.96 1704.26 1161.85 1700.5 1152.43 C 1697.83 1145.74 1697.34 1135.7 1700.31 1128.99 C 1703.84 1139.64 1708.45 1149.55 1719.04 1154.96 C 1726.5 1158.76 1733.99 1158.38 1741.9 1156.6 L 1741.3 1158.43 C 1737.76 1169.45 1738.12 1178.02 1743.66 1188.43 C 1747.63 1195.88 1753.75 1201.7 1761.93 1204.11 C 1769.87 1206.44 1779.09 1207.04 1787.01 1204.29 L 1788.35 1203.83 C 1796.5 1200.9 1803.85 1194.38 1807.76 1186.63 L 1808.7 1186.5 L 1810.16 1187.63 C 1816.27 1192.04 1828.99 1192.93 1836.17 1191.29 C 1847.52 1188.68 1853.83 1181.44 1860.93 1173.02 z"/>
<path transform="translate(0,0)" fill="rgb(135,133,84)" d="M 1649.19 965.296 C 1648.96 974.968 1648.05 984.573 1645.72 994 C 1643.19 1004.27 1638.83 1014.12 1634.96 1023.93 C 1626.15 1046.28 1616.77 1068.69 1615.23 1092.93 C 1609.89 1088.06 1604.29 1082.84 1597.41 1080.27 L 1596 1079.77 C 1590.51 1077.79 1585.21 1077.89 1579.46 1077.85 C 1584.27 1057.71 1597.43 1039.28 1601.27 1019.05 C 1603.27 1014.56 1610.3 1009.04 1613.58 1004.88 L 1614.07 1004.57 C 1627.15 996.79 1635.34 980.625 1641.33 967.187 L 1642.39 967.498 C 1645.3 968.213 1646.67 966.696 1649.19 965.296 z"/>
<path transform="translate(0,0)" fill="rgb(56,102,65)" d="M 458.583 1700.38 L 461.76 1700.18 C 484.551 1699.03 505.951 1707.95 522.56 1723.28 C 536.359 1736.01 545.572 1755.07 552.573 1772.19 C 555.017 1778.17 558.403 1785.48 558.712 1792 C 556.887 1793.4 556.933 1793.51 554.661 1793.4 C 552.37 1788.14 550.795 1782.72 548.066 1777.65 C 547.373 1776.36 547.902 1776.77 546.215 1776.78 C 533.261 1776.86 519.956 1776.32 507.5 1772.47 C 483.713 1765.13 467.597 1752.64 455.974 1730.57 C 452.302 1722.86 450.044 1715.03 447.909 1706.8 L 497.108 1734.5 C 515.666 1746.03 532.061 1759.37 547.228 1775.09 L 539.383 1761.3 C 521.594 1735.21 502.809 1713.98 471.5 1705.23 C 464.852 1703.37 457.787 1702.84 451 1701.56 L 458.583 1700.38 z"/>
<path transform="translate(0,0)" fill="rgb(56,102,65)" d="M 1341.75 498.342 C 1351.06 480.518 1354.91 460.39 1364.82 442.834 C 1378.6 418.442 1398.56 407.669 1423.05 396.273 C 1429.37 393.332 1435.37 389.19 1442.16 387.457 C 1443.6 387.089 1442.85 387.17 1444.69 388.294 L 1444.94 392 C 1442.71 395.812 1439.48 397.847 1435.98 400.379 C 1439.33 410.233 1441.17 418.907 1442.02 429.26 L 1440.6 432.978 C 1438.65 440.826 1436.34 448.638 1431.92 455.5 C 1424.71 466.681 1411.28 475.849 1400.05 482.608 C 1385.17 491.559 1368.2 496.737 1351.41 500.71 C 1348.75 501.341 1343.61 503.188 1340.97 502.315 L 1340.18 501.935 L 1341.75 498.342 z"/>
<path transform="translate(0,0)" fill="rgb(151,162,111)" d="M 1431.06 401.5 L 1432.74 402.047 L 1432.38 404.268 C 1431.51 407.963 1429.48 413.852 1427.03 416.796 C 1421.15 423.891 1412.67 429.898 1406.02 436.438 C 1391.28 450.954 1380.46 467.362 1362.5 478.294 L 1361.29 478.325 C 1360.78 475.301 1361.93 472.836 1362.98 470 C 1370.49 449.645 1387.79 426.803 1405.63 414.579 C 1413.55 409.154 1422.36 405.453 1431.06 401.5 z"/>
<path transform="translate(0,0)" fill="rgb(188,71,73)" d="M 1625.18 571.748 C 1636.06 570.718 1645.8 569.206 1655.36 563.587 C 1670.66 554.593 1682.61 538.89 1686.84 521.617 L 1687.22 520 L 1687.67 518.22 C 1694.07 491.742 1681.35 464.629 1667.87 442.676 C 1674.23 441.75 1688.19 448.039 1693.97 451.187 C 1710.03 458.649 1723.73 473.13 1730.03 489.812 C 1736.49 506.928 1736.57 529.139 1728.69 545.803 C 1719.6 565.056 1703.33 580.594 1683.06 587.507 C 1667.88 592.686 1651.08 592.762 1636.45 585.827 C 1629.66 582.612 1624.1 577.921 1619 572.5 C 1620.66 571.046 1623.01 571.697 1625.18 571.748 z"/>
<path transform="translate(0,0)" fill="rgb(242,232,207)" d="M 183.506 1368.77 L 182.592 1364.27 C 181.557 1359.39 180.832 1355.13 181.177 1350.12 C 182.044 1337.52 189.278 1322.75 199.142 1314.69 C 209.96 1305.84 225.62 1301.53 239.5 1303.41 C 253.324 1305.29 266.202 1312.19 274.599 1323.48 C 284.23 1336.42 285.462 1350.69 283.441 1366.14 C 280.089 1378.95 273.738 1390.11 262.046 1397.05 C 249.333 1404.59 232.733 1407.01 218.486 1402.93 C 205.733 1399.29 193.913 1390.16 187.546 1378.47 L 183.506 1368.77 z"/>
<path transform="translate(0,0)" fill="rgb(238,167,131)" d="M 227.083 1333.23 C 230.378 1332.78 233.677 1332.45 237 1332.85 C 242.314 1333.49 246.97 1337.18 249.945 1341.5 C 253.163 1346.18 254.096 1352.91 252.5 1358.35 C 250.48 1365.23 244.524 1368.62 238.59 1371.64 C 235.195 1372.17 231.4 1372.42 228 1371.9 C 223.528 1371.22 218.77 1367.94 216.243 1364.25 C 213.053 1359.6 211.938 1354.08 213.422 1348.56 C 215.386 1341.26 220.765 1336.78 227.083 1333.23 z"/>
<path transform="translate(0,0)" fill="rgb(242,232,207)" d="M 1246.98 1760.3 C 1258.53 1759.53 1268.05 1761.45 1278.11 1767.43 C 1291.13 1775.16 1300.52 1788.79 1304.08 1803.37 C 1307.32 1816.64 1304.58 1831.77 1297.25 1843.22 C 1288.47 1856.95 1273.64 1863.71 1258.23 1866.88 C 1245.28 1867.46 1234.63 1865.75 1223.5 1858.83 C 1211.58 1851.41 1204.09 1838.26 1201.38 1824.71 C 1198.57 1810.62 1201.04 1795.13 1209.26 1783.19 C 1218.28 1770.11 1231.58 1762.9 1246.98 1760.3 z"/>
<path transform="translate(0,0)" fill="rgb(238,167,131)" d="M 1266.53 1797.5 L 1269.47 1797.15 C 1273.22 1798.81 1275.75 1800.65 1277.18 1804.68 C 1279.43 1810.98 1278.04 1820.58 1274.85 1826.27 C 1271.75 1831.78 1266.28 1835.63 1260.29 1837.4 C 1252.83 1839.6 1246.66 1838.15 1240.04 1834.5 C 1237.05 1832.06 1234.37 1829.8 1232.36 1826.45 C 1228.75 1820.45 1227.14 1813.76 1229.13 1806.93 C 1230.28 1802.95 1232.51 1800.75 1235.99 1798.71 C 1237.72 1798.69 1238.98 1798.67 1240.6 1799.34 L 1244.5 1800.9 C 1251.85 1803.08 1258.7 1801.61 1265.27 1798.18 L 1266.53 1797.5 z"/>
<path transform="translate(0,0)" fill="rgb(242,232,207)" d="M 196.606 779.168 C 194.634 770.124 191.461 763.04 192.109 753.424 C 193.146 738.016 199.263 724.658 211.216 714.595 C 223.31 704.413 238.876 700.433 254.478 702.105 C 268.214 703.577 280.353 711.862 288.775 722.5 C 299.812 736.442 300.558 752.168 298.649 769.02 C 294.071 783.818 285.671 796.812 271.581 804.232 C 258.688 811.022 243.455 812.824 229.57 808.157 C 213.812 802.86 204.608 793.315 196.606 779.168 z"/>
<path transform="translate(0,0)" fill="rgb(238,167,131)" d="M 244.514 734.315 C 248.09 734.516 251.68 734.629 254.992 736.141 C 259.971 738.415 264.947 743.653 266.554 748.942 C 268.197 754.348 267.199 761.389 264.237 766.126 C 260.51 772.085 254.943 774.38 248.493 776.147 C 243.663 776.079 239.68 775.936 235.437 773.422 C 230.524 770.512 226.992 765.756 225.835 760.159 C 224.634 754.354 226.251 747.618 229.553 742.777 C 233.227 737.391 238.389 735.514 244.514 734.315 z"/>
<path transform="translate(0,0)" fill="rgb(242,232,207)" d="M 1528.14 1645.7 C 1530.38 1628.87 1535.72 1616.51 1549.47 1606.07 C 1561.61 1596.85 1577.84 1591.75 1593.09 1594.29 C 1608.29 1596.82 1622.38 1604.99 1631.03 1617.94 C 1639.03 1629.92 1642.16 1644.95 1639.05 1659.06 C 1635.89 1673.38 1628.93 1684.03 1617.33 1692.84 C 1607.25 1699.46 1596.73 1703.39 1584.54 1703.85 C 1570.08 1704.39 1556.53 1698.78 1545.97 1689.09 C 1532.92 1677.13 1528.82 1662.97 1528.14 1645.7 z"/>
<path transform="translate(0,0)" fill="rgb(222,158,88)" d="M 1579.03 1630.17 C 1582.51 1629.85 1586.18 1629.33 1589.62 1630.21 C 1594.97 1631.58 1599.3 1634.62 1601.9 1639.59 C 1604.36 1644.29 1605 1650.01 1603.18 1655.05 C 1600.85 1661.53 1596.09 1664.64 1590.08 1667.38 C 1586.36 1667.9 1583.16 1668.16 1579.5 1667.09 C 1573.65 1665.38 1569.58 1662.18 1566.86 1656.7 C 1564.77 1652.48 1564.29 1647.16 1565.85 1642.68 C 1568.14 1636.11 1573.02 1633 1579.03 1630.17 z"/>
<path transform="translate(0,0)" fill="rgb(242,232,207)" d="M 1476.41 400.014 C 1476.46 399.1 1473.57 394.405 1473.01 393.271 C 1466.05 379.145 1464.8 365.358 1468.41 350.123 C 1472.37 333.399 1484.09 318.441 1498.71 309.593 C 1513.32 300.752 1532.45 295.811 1549.31 300.338 L 1551 300.818 C 1566 304.971 1579.05 312.965 1588.47 325.497 C 1600.71 341.78 1603.21 360.26 1600.53 379.919 C 1594.86 399.379 1584.53 414.407 1566.57 424.269 C 1550.61 433.034 1532.74 434.148 1515.41 428.972 C 1498.46 423.909 1486.43 414.539 1476.41 400.014 z"/>
<path transform="translate(0,0)" fill="rgb(238,167,131)" d="M 1529.3 341.193 C 1533.89 341.037 1538.06 340.908 1542.45 342.591 C 1549.24 345.201 1555.05 349.678 1557.98 356.5 C 1559.91 361.002 1559.67 367.477 1557.92 372 C 1554.69 380.329 1547.7 384.427 1539.99 387.883 C 1534.9 388.439 1530.05 388.597 1525.28 386.523 C 1519.52 384.014 1514.05 378.809 1511.87 372.844 C 1509.57 366.558 1509.48 359.917 1512.55 353.881 C 1516.1 346.913 1522.17 343.504 1529.3 341.193 z"/>
<path transform="translate(0,0)" fill="rgb(242,232,207)" d="M 1366.35 566.317 L 1442.79 485.995 L 1523.07 569.032 C 1534.1 580.295 1547.6 591.46 1556.96 604 C 1556.4 606.324 1556.24 606.191 1554.7 607.796 L 1459.5 701.649 L 1458.07 701.504 L 1457.08 700.232 C 1457.53 683.114 1451.57 660.472 1445 644.615 C 1429.91 608.155 1402.8 581.23 1366.35 566.317 z"/>
<path transform="translate(0,0)" fill="rgb(94,51,37)" d="M 1037.99 1720.14 C 1047.22 1721.73 1057.15 1720.57 1066.5 1720.56 C 1077.68 1720.55 1088.85 1721.24 1100.02 1720.58 L 987.096 1837.67 L 954.091 1872.37 C 948.376 1878.32 942.462 1885.45 935.757 1890.26 C 928.924 1895.17 920.417 1897.56 912.043 1897.68 C 898.399 1897.86 885.846 1891.43 876.1 1882.35 C 868.816 1873.37 864.369 1863.64 864.636 1851.87 C 864.764 1846.18 866.043 1840.14 869.532 1835.51 C 874.551 1828.85 881.506 1823.08 887.624 1817.4 L 918.521 1789.09 L 991.036 1720.49 L 1037.99 1720.14 z"/>
<path transform="translate(0,0)" fill="rgb(124,56,43)" d="M 991.036 1720.49 L 1037.99 1720.14 C 1036.05 1725.01 1029.56 1730.08 1025.89 1733.81 L 992.181 1767.25 L 904.185 1855.24 L 886.889 1871.98 C 883.436 1875.18 878.902 1878.6 876.1 1882.35 C 868.816 1873.37 864.369 1863.64 864.636 1851.87 C 864.764 1846.18 866.043 1840.14 869.532 1835.51 C 874.551 1828.85 881.506 1823.08 887.624 1817.4 L 918.521 1789.09 L 991.036 1720.49 z"/>
<path transform="translate(0,0)" fill="rgb(233,199,141)" d="M 470.768 352.855 C 471.213 339.557 476.187 327.408 486.889 319.041 C 489.445 317.042 493.093 315.23 494.818 312.5 C 493.743 310.893 492.668 309.274 491.976 307.454 C 488.407 298.07 491.531 284.562 495.893 276 C 500.633 266.697 509.736 259.208 519.687 256.152 C 530.517 252.825 543.447 253.602 553.491 259.035 C 565.637 265.604 569.785 276.333 573.699 288.711 C 577.433 284.915 582.688 279.861 587.925 278.428 C 596.168 276.172 606.64 278.726 613.582 283.276 C 622.346 289.02 627.94 298.178 630.04 308.355 C 632.207 318.856 629.471 327.491 623.768 336.271 C 626.019 342.075 628.862 351.647 626.255 357.605 C 624.988 360.5 622.521 363.378 620.538 365.833 C 621.669 376.663 621.631 387.905 614.576 397.008 C 609.582 403.452 603.313 406.787 595.202 407.384 C 590.525 407.729 585.886 406.956 581.275 406.253 C 578.318 410.019 575.545 413.262 571.86 416.364 C 567.889 418.38 564.057 419.789 559.639 420.5 C 551.142 421.867 541.818 420.347 534.851 415.066 C 525.163 407.722 522.364 396.776 520.631 385.379 L 520.385 383.705 C 517.168 385.474 513.52 387.822 509.945 388.7 C 503.353 390.319 495.539 388.614 489.899 384.939 C 478.503 377.516 473.64 365.501 470.768 352.855 z"/>
<path transform="translate(0,0)" fill="rgb(135,133,84)" d="M 623.768 336.271 C 626.019 342.075 628.862 351.647 626.255 357.605 C 624.988 360.5 622.521 363.378 620.538 365.833 C 617.123 357.978 612.448 353.16 606.366 347.349 C 613.502 344.296 617.058 343.001 622.755 337.297 L 623.768 336.271 z"/>
<path transform="translate(0,0)" fill="rgb(188,71,73)" d="M 548.883 310.195 C 554.253 310.212 559.027 310.876 563.79 313.528 C 570.123 317.055 574.122 322.998 575.933 329.935 C 577.649 336.511 576.192 344.479 572.457 350.145 C 568.026 356.867 561.686 359.145 554.2 360.805 C 549.487 360.598 545.044 360.291 540.719 358.236 C 534.428 355.246 529.594 349.507 527.5 342.888 C 525.559 336.754 526.073 328.485 529.396 322.875 C 533.975 315.145 540.535 312.229 548.883 310.195 z"/>
<path transform="translate(0,0)" fill="rgb(233,199,141)" d="M 1700.31 1128.99 C 1700.83 1127.98 1700.56 1124.27 1700.58 1122.97 C 1700.75 1112.46 1702.87 1103.1 1710.5 1095.26 C 1720.33 1085.17 1731.08 1084.67 1744.19 1084.93 L 1742.98 1080.5 C 1740.61 1072.1 1740.58 1065.46 1743.63 1057.17 C 1747.1 1047.71 1754.42 1040.22 1763.62 1036.2 C 1771.95 1032.57 1783.67 1031.85 1792.19 1035.37 L 1793.5 1035.94 L 1796.41 1037.21 C 1806.03 1042.08 1812.48 1053.44 1815.36 1063.4 L 1815.74 1064.76 L 1819.8 1062.73 L 1825.24 1060.22 C 1832.24 1057.68 1840.88 1058.66 1847.54 1061.72 C 1856.92 1066.04 1863.67 1073.73 1867.16 1083.38 C 1871.06 1094.2 1869.57 1104.99 1864.75 1115.11 C 1866.57 1118.94 1865.86 1125.06 1864.5 1129.08 C 1863.46 1132.16 1861.28 1135.05 1859.4 1137.68 C 1863.13 1145.99 1865.9 1153.9 1863.88 1163.17 C 1863.14 1166.54 1861.58 1169.62 1860.93 1173.02 C 1853.83 1181.44 1847.52 1188.68 1836.17 1191.29 C 1828.99 1192.93 1816.27 1192.04 1810.16 1187.63 L 1808.7 1186.5 L 1807.76 1186.63 C 1803.85 1194.38 1796.5 1200.9 1788.35 1203.83 L 1787.01 1204.29 C 1779.09 1207.04 1769.87 1206.44 1761.93 1204.11 C 1753.75 1201.7 1747.63 1195.88 1743.66 1188.43 C 1738.12 1178.02 1737.76 1169.45 1741.3 1158.43 L 1741.9 1156.6 C 1733.99 1158.38 1726.5 1158.76 1719.04 1154.96 C 1708.45 1149.55 1703.84 1139.64 1700.31 1128.99 z"/>
<path transform="translate(0,0)" fill="rgb(135,133,84)" d="M 1864.75 1115.11 C 1866.57 1118.94 1865.86 1125.06 1864.5 1129.08 C 1863.46 1132.16 1861.28 1135.05 1859.4 1137.68 C 1856.42 1133.72 1853.04 1131.39 1849.01 1128.68 C 1852.94 1123.9 1859.63 1121.39 1863.95 1116.13 L 1864.75 1115.11 z"/>
<path transform="translate(0,0)" fill="rgb(188,71,73)" d="M 1780.93 1092.21 C 1786.24 1091.9 1791.27 1091.58 1796.29 1093.77 C 1803.1 1096.75 1808.72 1103.98 1811.06 1110.92 C 1813.37 1117.81 1813.3 1126.53 1809.62 1133 C 1805.19 1140.81 1797.6 1144.67 1789.29 1146.99 C 1783.04 1147.25 1777.14 1146.99 1771.5 1143.94 C 1764.44 1140.11 1759.78 1134.11 1757.68 1126.34 C 1755.65 1118.85 1757.09 1109.97 1761.3 1103.5 C 1765.76 1096.64 1773.38 1093.95 1780.93 1092.21 z"/>
<path transform="translate(0,0)" fill="rgb(188,71,73)" d="M 1155.07 519.661 C 1154.81 515.619 1158.56 509.305 1160.25 505.663 L 1178.91 467.306 L 1264.85 291.405 C 1276.63 268.482 1287.86 243.929 1301.29 221.982 C 1309.85 207.995 1323.07 196.44 1339.5 193.061 C 1349.76 190.951 1361.37 192.919 1370.06 198.883 C 1378.7 204.828 1383.65 213.716 1385.67 223.906 C 1387.42 232.765 1386.62 241.264 1383.5 249.73 C 1380.1 258.955 1374.32 267.654 1369.44 276.15 L 1347.34 314.608 L 1250.79 471.169 L 1201.73 545.152 L 1193.64 539.835 L 1155.07 519.661 z"/>
<path transform="translate(0,0)" fill="rgb(56,102,65)" d="M 809.309 156.731 C 821.365 154.572 835.01 156.523 847.041 158.518 L 855.738 160.445 C 892.668 172.613 926.578 197.72 944.373 232.883 C 952.767 249.471 958.508 269.33 956.115 288 L 955.879 289.925 C 955.282 294.473 954.1 298.136 952.359 302.36 C 963.699 315.852 972.362 330.705 979.211 346.905 C 982.909 336.323 985.825 325.493 990.01 315.084 C 1009.11 267.593 1039.01 225.819 1086 203.004 L 1103.5 195.341 L 1104.66 197 C 1103.82 200.169 1101.29 201.048 1098.5 202.63 C 1085.87 209.793 1073.33 216.259 1061.78 225.195 C 1022.52 255.549 997.905 304.012 984.354 350.914 C 983.177 354.99 982.841 360.372 979.5 363.029 L 977.104 362.5 C 974.709 358.158 973.723 352.883 971.988 348.227 C 968.142 337.908 962.771 328.342 956.621 319.237 C 954.496 316.092 952.546 312.604 949.312 310.5 L 945.717 313.832 C 929.913 330.155 903.042 335.556 881.011 335.97 C 860.529 336.356 841.895 333.38 823.09 325.016 L 812.253 319.53 C 809.291 318.58 805.594 315.769 802.969 314.041 C 792.091 306.881 782.59 297.425 773.854 287.836 L 769.973 283.378 C 759.789 270.277 749.228 255.015 743.111 239.56 L 741.011 236.605 C 741.017 235.509 739.78 233.093 739.379 232.048 L 733.512 217.124 C 730.187 207.922 728.281 197.988 724.471 189.051 C 724.308 187.603 724.138 186.716 724.742 185.332 C 725.382 183.869 730.279 182.268 731.919 181.549 C 755.802 169.897 777.331 161.288 803.566 156.661 L 809.309 156.731 z"/>
<path transform="translate(0,0)" fill="rgb(188,71,73)" d="M 423.786 1382.82 C 438.854 1384.73 451.847 1387.91 466.28 1392.56 C 473.889 1397.72 482.155 1401.84 489.402 1407.53 C 513.953 1426.78 534.438 1458.48 540.491 1489.37 C 543.396 1504.19 544.853 1522.61 541.404 1537.45 L 541.351 1537.7 C 538.38 1553.24 533.491 1567.59 525.253 1581.18 C 508.058 1609.54 477.459 1632.16 444.982 1639.67 C 411.148 1647.5 375.491 1643.08 345.795 1624.67 C 316.3 1606.4 294.974 1575.75 287.251 1541.98 C 279.273 1507.09 285.272 1474.27 304.037 1444.02 C 308.721 1436 314.654 1428.73 321.132 1422.1 C 342.532 1400.19 368.029 1387.56 398.399 1383.68 C 406.695 1382.63 415.421 1382.92 423.786 1382.82 z"/>
<path transform="translate(0,0)" fill="rgb(242,232,207)" d="M 451.038 1424.04 C 454.326 1423.92 457.944 1423.62 461.178 1424.29 C 466.841 1425.48 470.979 1429.07 473.629 1434.12 C 475.629 1437.93 475.802 1444.75 474.246 1448.77 C 472.331 1453.72 468.464 1455.7 463.943 1457.93 C 460.256 1458.13 456.576 1458.02 453 1456.98 C 448.21 1455.6 444.058 1452.57 441.723 1448.12 C 439.448 1443.79 439.175 1437.88 440.883 1433.3 C 442.772 1428.23 446.416 1426.33 451.038 1424.04 z"/>
<path transform="translate(0,0)" fill="rgb(56,102,65)" d="M 1551.37 816.078 C 1554.68 812.056 1555.68 812.617 1561 812.082 C 1566.55 811.524 1576.54 811.639 1580.45 806.984 C 1582.3 804.78 1582.49 801.382 1582.26 798.55 C 1581.66 790.936 1575.46 784.219 1572.26 777.416 C 1560.51 752.449 1556.38 719.881 1574.87 697.033 C 1583.11 686.843 1597.08 678.25 1610.28 677.104 C 1626.12 675.729 1639.42 679.804 1651.4 690.269 C 1664.16 701.407 1674.7 716.735 1685.65 729.694 C 1687.47 700.257 1693.05 672.133 1715.94 651.612 C 1730.14 638.881 1748.43 634.802 1767 636.166 C 1785.14 637.499 1803.26 647.938 1814.81 661.724 C 1827.03 676.327 1832.38 693.634 1830.93 712.5 C 1829.18 735.336 1814.12 755.464 1797.07 769.565 C 1782.02 782.007 1747.88 794.787 1745.04 816.189 C 1744.28 821.943 1745.54 828.489 1749.28 833.072 C 1751.7 836.043 1755.15 837.817 1759 837.867 C 1764.82 837.942 1771.25 836.126 1777 835.217 C 1793.54 832.604 1810.67 834.883 1823.41 846.706 C 1831.14 853.889 1835.97 861.943 1839.15 872 L 1839.64 873.512 C 1843.3 885.489 1841.16 901.694 1834.96 912.431 C 1828.57 923.517 1816.63 931.483 1804.33 934.485 C 1790.79 937.792 1776.07 936.797 1762.31 935.829 C 1725.93 933.268 1686.6 928.732 1656.05 953.303 L 1652.63 956.575 L 1649.19 965.296 C 1646.67 966.696 1645.3 968.213 1642.39 967.498 L 1641.33 967.187 C 1635.34 980.625 1627.15 996.79 1614.07 1004.57 L 1613.58 1004.88 C 1615.51 996.765 1622.15 989.137 1626.36 981.898 C 1633 970.473 1636.86 958.943 1639.29 946 C 1641.4 934.801 1642.47 920.781 1639.57 909.682 L 1639.11 908 C 1636.72 899.123 1633.5 891.528 1629.3 883.383 L 1621.14 895.923 C 1618.36 899.036 1616.18 902.227 1611.87 903.063 C 1614.14 896.191 1621.45 877.597 1618.9 871.248 L 1611.56 869.506 C 1591.76 867.963 1578.66 875.221 1562.5 885.534 C 1561.67 883.431 1562.18 882.11 1562.7 879.977 C 1567.83 872.372 1574.33 864.012 1582.57 859.59 C 1586.55 857.455 1591.84 856.479 1596.2 855.291 C 1594.43 853.348 1588.57 851.844 1585.95 850.799 C 1573.15 845.611 1556.76 841.628 1542.96 840.498 C 1534.62 839.814 1526.3 840.295 1517.99 839.046 C 1538.11 832.398 1558.29 834.617 1578.77 837.845 C 1559.63 828.327 1536.52 820.833 1515.02 821.96 C 1511.95 821.858 1507.89 822.415 1505.53 820.5 L 1506.5 819.531 C 1521.07 816.189 1536.53 812.435 1551.37 816.078 z"/>
<path transform="translate(0,0)" fill="rgb(188,71,73)" d="M 1641.33 967.187 L 1649.22 939.111 L 1650.51 947.761 C 1650.74 950.296 1650.85 952.573 1651.88 954.944 L 1652.63 956.575 L 1649.19 965.296 C 1646.67 966.696 1645.3 968.213 1642.39 967.498 L 1641.33 967.187 z"/>
<path transform="translate(0,0)" fill="rgb(242,232,207)" d="M 360.426 735.079 C 360.353 733.89 355.557 727.526 354.638 725.936 C 349.954 717.829 346.12 709.05 342.423 700.455 L 276.772 541.015 C 271.636 528.355 267.772 516.802 273.738 503.54 C 276.69 496.977 281.088 491.856 287.068 487.885 C 294.993 482.623 305.178 479.507 314.015 475.94 L 355.826 458.693 C 375.77 450.298 395.708 439.873 415.971 432.5 C 426.312 428.737 436.923 428.544 446.877 433.532 C 452.306 436.252 456.996 440.682 460.281 445.77 C 471.02 462.403 477.302 483.469 485.628 501.551 C 491.84 515.041 500.607 528.772 505.19 542.785 L 531.054 600.843 C 546.922 635.647 563.881 668.74 548.329 707.412 C 541.503 724.387 529.701 738.856 523.104 755.937 C 517.901 771.256 516.295 785.007 522.14 800.484 C 511.754 803.868 499.903 809.492 490.409 814.92 L 487.819 809.547 C 476.804 789.127 454.64 782.892 433.956 776.561 C 428.271 775.839 422.126 773.653 416.642 772.007 C 392.589 764.789 376.788 754.116 360.426 735.079 z"/>
<path transform="translate(0,0)" fill="rgb(129,89,57)" d="M 427.63 471.5 L 429.051 471.085 C 431.882 470.596 433.825 471.011 436.05 472.857 C 437.913 474.403 438.767 476.11 439.753 478.255 L 479.704 575.977 L 496.296 616.29 C 499.195 623.319 503.366 629.804 503.901 637.5 C 502.088 640.449 501.587 640.747 498.5 642.369 C 497.678 642.665 497.415 642.81 496.438 642.875 C 493.904 643.044 491.305 642.29 489.689 640.258 C 486.258 635.945 484.261 628.524 482.224 623.359 L 467.485 586.065 L 438.736 516.66 C 435.8 509.692 422.343 483.327 422.995 478 C 423.398 474.71 425.249 473.411 427.63 471.5 z"/>
<path transform="translate(0,0)" fill="rgb(129,89,57)" d="M 392.217 486.5 C 393.068 486.311 394.139 486.012 395.011 486.131 C 396.902 486.391 398.44 487.19 399.674 488.585 C 403.88 493.34 406.307 502.507 408.727 508.506 L 425.221 549.072 L 464.512 645.013 C 465.476 647.696 465.925 649.657 465.831 652.5 C 464.341 655.366 463.53 656.672 460.5 658.195 L 458.938 658.262 C 456.854 658.257 454.516 657.849 453.118 656.144 C 449.761 652.048 447.943 644.717 445.831 639.787 L 420.925 579.5 L 387.927 501.747 C 386.615 498.323 385.344 495.217 385.872 491.5 C 387.556 488.52 389.247 487.83 392.217 486.5 z"/>
<path transform="translate(0,0)" fill="rgb(129,89,57)" d="M 351.49 501.5 C 355.496 500.584 357.539 501.028 361.139 502.85 C 367.72 512.041 371.144 524.464 375.35 534.927 L 396.06 585.513 L 420.737 644.411 C 423.145 650.302 428.589 660.243 428.83 666.5 C 428.964 669.98 427.594 671.584 425.5 674.134 C 424.492 674.722 424.246 674.948 422.984 675.244 C 420.495 675.829 417.891 674.941 415.924 673.5 C 412.766 668.299 410.886 662.13 408.654 656.461 L 398.357 631.223 L 360.469 541.622 L 351.5 520.024 C 349.863 516.024 347.788 511.924 348.025 507.5 C 348.201 504.219 348.979 503.42 351.49 501.5 z"/>
<path transform="translate(0,0)" fill="rgb(129,89,57)" d="M 314.808 517.5 C 317.576 516.906 319.807 517.532 322.5 518.132 C 324.192 519.493 325.25 520.444 326.167 522.467 L 337.321 549.791 L 371.323 630.796 L 385.351 663.732 C 388.116 670.162 391.482 676.595 392.809 683.5 C 391.232 686.629 390.321 687.074 387.5 688.992 C 386.49 689.294 385.991 689.495 384.864 689.561 C 382.553 689.696 380.281 688.863 378.695 687.192 C 373.89 682.129 370.589 669.079 367.679 662.199 L 339.668 595.99 C 330.32 574.196 319.19 552.584 311.091 530.347 C 310.011 527.383 309.71 524.659 309.803 521.5 C 311.254 518.455 311.608 518.751 314.808 517.5 z"/>
<path transform="translate(0,0)" fill="rgb(188,71,73)" d="M 1515.02 821.96 C 1536.52 820.833 1559.63 828.327 1578.77 837.845 C 1558.29 834.617 1538.11 832.398 1517.99 839.046 C 1526.3 840.295 1534.62 839.814 1542.96 840.498 C 1556.76 841.628 1573.15 845.611 1585.95 850.799 C 1588.57 851.844 1594.43 853.348 1596.2 855.291 C 1591.84 856.479 1586.55 857.455 1582.57 859.59 C 1574.33 864.012 1567.83 872.372 1562.7 879.977 C 1562.18 882.11 1561.67 883.431 1562.5 885.534 C 1578.66 875.221 1591.76 867.963 1611.56 869.506 L 1618.9 871.248 C 1621.45 877.597 1614.14 896.191 1611.87 903.063 C 1616.18 902.227 1618.36 899.036 1621.14 895.923 L 1629.3 883.383 C 1633.5 891.528 1636.72 899.123 1639.11 908 L 1639.57 909.682 C 1642.47 920.781 1641.4 934.801 1639.29 946 C 1636.86 958.943 1633 970.473 1626.36 981.898 C 1622.15 989.137 1615.51 996.765 1613.58 1004.88 C 1610.3 1009.04 1603.27 1014.56 1601.27 1019.05 C 1597.43 1039.28 1584.27 1057.71 1579.46 1077.85 C 1585.21 1077.89 1590.51 1077.79 1596 1079.77 L 1597.41 1080.27 C 1604.29 1082.84 1609.89 1088.06 1615.23 1092.93 L 1623.1 1101.35 C 1628.67 1105.91 1634.47 1110.38 1639.16 1115.86 C 1656.08 1135.58 1668.12 1166.07 1670.72 1191.91 C 1674.89 1233.4 1662.44 1275.04 1635.83 1307.26 C 1622.83 1323 1608.12 1334.63 1590.38 1344.5 C 1552.9 1362.64 1515.86 1367.51 1476.03 1353.74 L 1459.99 1346.7 L 1460.01 1314.18 L 1459.72 1151.48 L 1459.25 1086.49 L 1458.86 894.64 L 1502.05 839.439 L 1503.28 838.07 L 1486.16 833.242 C 1492.09 831.579 1498.73 831.224 1504.44 829.039 C 1508.18 827.607 1511.84 824.377 1515.02 821.96 z"/>
<path transform="translate(0,0)" fill="rgb(151,162,111)" d="M 1544.12 1081.78 L 1601.27 1019.05 C 1597.43 1039.28 1584.27 1057.71 1579.46 1077.85 C 1568.68 1079.69 1555.07 1082.7 1544.12 1081.78 z"/>
<path transform="translate(0,0)" fill="rgb(188,71,73)" d="M 649.569 397.698 C 696.39 373.594 747.794 360.908 800.593 364.325 C 827.495 366.066 855.112 372.299 880.729 380.638 C 932.272 397.415 982.833 429.83 1017.01 472.375 C 1033.41 491.455 1047.93 512.088 1059.73 534.346 C 1063.78 541.981 1067.22 549.86 1070.6 557.812 C 1071.72 560.443 1073.13 565.834 1074.88 567.837 L 737.713 573.873 L 675.715 574.778 C 660.782 574.924 641.264 572.917 626.988 577.33 C 619.565 579.624 612.71 584.238 607.399 589.819 C 601.547 595.968 597.023 604.135 595.475 612.545 C 594.042 620.331 594.361 628.789 594.344 636.691 L 594.319 673.354 L 594.36 801.13 L 595 916.896 C 582.675 902.784 573.813 883.579 564.006 867.58 L 522.14 800.484 C 516.295 785.007 517.901 771.256 523.104 755.937 C 529.701 738.856 541.503 724.387 548.329 707.412 C 563.881 668.74 546.922 635.647 531.054 600.843 L 505.19 542.785 L 529.316 504.498 C 560.108 460.226 601.495 422.357 649.569 397.698 z"/>
<path transform="translate(0,0)" fill="rgb(234,129,109)" d="M 794.597 390.33 C 823.526 385.95 859.096 397.047 883 413.015 L 884.084 413.708 C 892.226 419.026 901.205 428.421 903.071 438.257 C 903.947 442.877 903.462 448.11 900.55 451.958 C 894.821 459.527 884.99 461.173 876.265 462.7 C 847.519 465.834 814.724 455.65 790.844 439.932 C 781.523 433.797 770.073 424.175 767.944 412.662 L 767.755 411.5 C 767.033 407.28 767.586 404.023 770.218 400.518 C 775.722 393.187 786.12 391.488 794.597 390.33 z"/>
<path transform="translate(0,0)" fill="rgb(56,102,65)" d="M 1191.42 563.203 C 1197.82 565.808 1210.1 563.897 1217.13 563.716 L 1279.21 561.784 C 1307.55 560.722 1339.3 555.418 1366.35 566.317 C 1402.8 581.23 1429.91 608.155 1445 644.615 C 1451.57 660.472 1457.53 683.114 1457.08 700.232 C 1458.51 707.477 1457.97 715.476 1458.01 722.871 L 1458.86 894.64 L 1459.25 1086.49 L 1459.72 1151.48 L 1460.01 1314.18 L 1459.99 1346.7 L 1460.03 1359.48 L 1460.3 1492.4 C 1470.6 1481.88 1479.91 1470.13 1489.65 1459.07 C 1522.57 1421.69 1555.42 1385.07 1597.49 1357.6 C 1625.67 1339.21 1662.06 1325.82 1696.12 1326.29 C 1705.33 1326.42 1714.27 1328.14 1723.25 1330.02 C 1738.61 1309.52 1758.96 1291.02 1776.67 1272.48 L 1783.25 1281.29 L 1775.37 1288.98 C 1770.03 1294.37 1732.49 1330.69 1731.34 1334.79 C 1730.04 1339.44 1730.36 1346.1 1729.5 1351.09 C 1710.82 1409.45 1665.22 1457.25 1616.51 1492.62 C 1600.02 1504.6 1583.16 1515.81 1565.02 1525.16 C 1540.64 1537.73 1518.16 1545.51 1491 1550.06 C 1482.41 1551.5 1473.71 1553.09 1464.97 1553.18 L 1461.53 1554.57 C 1459.73 1596.5 1442.58 1637.17 1411.49 1665.92 C 1393.96 1682.14 1371.02 1695.18 1347.7 1700.8 C 1325.52 1706.15 1303.31 1704.99 1280.68 1705 L 1210.12 1704.96 L 1116.34 1704.78 L 1116.1 1704.7 L 1100.02 1720.58 C 1088.85 1721.24 1077.68 1720.55 1066.5 1720.56 C 1057.15 1720.57 1047.22 1721.73 1037.99 1720.14 L 991.036 1720.49 L 1006.86 1704.81 L 776.819 1704.91 L 679.5 1703.92 C 671.226 1703.61 663.044 1704.4 654.81 1703.12 C 641.442 1702.97 627.867 1696.29 618.507 1686.91 C 610.5 1678.89 604.93 1668.49 602.26 1657.5 C 599.077 1644.4 599.085 1630.74 599.072 1617.36 L 599.079 1575.77 L 599.03 1456.93 C 569.867 1437.29 543.509 1405.68 508.448 1396.99 C 494.811 1393.61 480.266 1393.15 466.28 1392.56 C 451.847 1387.91 438.854 1384.73 423.786 1382.82 C 419.426 1373.79 417.806 1363.77 420.749 1354 C 423.771 1343.97 429.91 1338.37 438.893 1333.62 L 440.503 1332.78 C 426.342 1325.24 412.055 1319.35 396.374 1315.75 C 370.583 1309.83 343.191 1309.48 320.426 1294.22 C 306.764 1285.07 294.592 1271.1 291.724 1254.46 C 289.64 1242.36 291.999 1228.65 299.255 1218.64 C 308.701 1205.62 323.929 1198.71 339.388 1196.14 C 344.795 1195.25 350.269 1195.28 355.683 1194.43 C 330.546 1184.67 300.825 1189.68 274.312 1186.6 C 250.069 1183.78 225.91 1174.24 210.691 1154.29 C 199.26 1139.31 194.068 1120.02 196.582 1101.33 L 196.843 1099.5 C 197.656 1093.35 199.196 1088 201.738 1082.36 C 207.748 1069 219.167 1058.77 232.822 1053.68 C 256.56 1044.83 278.304 1052.72 300.118 1062.73 C 274.429 1026.82 242.341 989.829 237.446 944.136 C 235.659 927.454 241.332 908.72 251.952 895.753 C 263.994 881.052 280.776 873.759 299.5 872.305 C 321.322 870.611 341.42 876.602 357.995 890.985 C 384.095 913.635 390.197 946.279 396.95 978.433 L 395.334 937.5 C 395.827 886.829 407.715 838.612 426.914 791.961 L 428.678 787.861 L 433.956 776.561 C 454.64 782.892 476.804 789.127 487.819 809.547 L 490.409 814.92 C 499.903 809.492 511.754 803.868 522.14 800.484 L 564.006 867.58 C 573.813 883.579 582.675 902.784 595 916.896 L 594.36 801.13 L 594.319 673.354 L 594.344 636.691 C 594.361 628.789 594.042 620.331 595.475 612.545 C 597.023 604.135 601.547 595.968 607.399 589.819 C 612.71 584.238 619.565 579.624 626.988 577.33 C 641.264 572.917 660.782 574.924 675.715 574.778 L 737.713 573.873 L 1074.88 567.837 L 1130 565.952 L 1172.95 565.06 C 1178.59 564.927 1186.75 566.066 1191.42 563.203 z"/>
<path transform="translate(0,0)" fill="rgb(242,232,207)" d="M 1071.84 984.972 C 1071.9 945.066 1074.11 907.186 1085.7 868.627 C 1089.85 854.831 1095.15 841.023 1102.15 828.419 C 1105.3 822.744 1108.08 817.45 1114 814.252 C 1117.74 814.145 1118.25 814.279 1121.5 816.134 C 1122.75 818.119 1124.28 820.491 1123.81 823 C 1123.09 826.838 1118.19 831.511 1115.85 834.724 C 1112.72 839.018 1110.14 843.519 1107.8 848.282 C 1088.53 887.496 1081.52 937.324 1084.24 980.686 C 1084.87 986.373 1086.65 992.307 1085.84 998 L 1086.62 999.45 L 1088.07 999.075 L 1091.74 996.709 L 1093.1 999.05 C 1089.53 1008 1088.72 1017.69 1086.38 1026.99 C 1081.33 1028.47 1072.73 1028.72 1067.6 1027.68 C 1062.58 1016.45 1061.29 1004.16 1053.61 994.287 L 1057.02 993.134 L 1061.13 993.998 L 1062.81 993.219 L 1062.9 991.5 C 1065.7 989.995 1067.41 992.469 1070.8 991.72 C 1072.26 989.051 1071.96 987.957 1071.84 984.972 z"/>
<path transform="translate(0,0)" fill="rgb(203,211,148)" d="M 1084.24 980.686 L 1085.58 980.448 C 1090.33 938.069 1114.76 898.486 1147.82 872.023 C 1178.23 847.686 1213.4 837.339 1251.65 832.835 C 1240.44 883.071 1231.29 932.028 1184.03 961.605 C 1167.3 972.076 1146.67 978.78 1127.91 984.676 C 1120.62 987.276 1112.44 989.543 1105.66 993.286 C 1100.72 994.62 1097.29 996.166 1093.1 999.05 L 1091.74 996.709 L 1088.07 999.075 L 1086.62 999.45 L 1085.84 998 C 1086.65 992.307 1084.87 986.373 1084.24 980.686 z"/>
<path transform="translate(0,0)" fill="rgb(135,189,64)" d="M 1088.07 999.075 C 1087.36 997.773 1087.47 996.953 1087.43 995.5 C 1095.84 983.159 1103.34 970.335 1112.49 958.502 C 1128.29 938.085 1148.25 920.378 1167.64 903.449 C 1175.52 896.563 1183.44 888.454 1192.51 883.201 C 1181.52 897.375 1168.3 910.286 1156.09 923.446 L 1111.09 973.871 C 1105.45 980.338 1096.41 988.217 1092.38 995.502 L 1091.74 996.709 L 1088.07 999.075 z"/>
<path transform="translate(0,0)" fill="rgb(203,211,148)" d="M 1025.98 986.108 C 1018.68 981.969 1010.36 979.611 1002.61 976.399 C 993.517 972.624 984.853 967.863 976.448 962.746 C 962.858 954.471 949.928 944.211 939.954 931.734 C 916.938 902.945 905.802 863.067 897.281 827.81 C 925.851 834.39 955.447 839.841 981.842 853.073 C 1020.35 872.379 1048.44 905.487 1061 946.72 C 1064.88 959.481 1066.29 972.875 1070.47 985.5 L 1071.84 984.972 C 1071.96 987.957 1072.26 989.051 1070.8 991.72 C 1067.41 992.469 1065.7 989.995 1062.9 991.5 L 1062.81 993.219 L 1061.13 993.998 L 1057.02 993.134 L 1053.61 994.287 C 1050.18 993.878 1046.92 993.038 1043.57 992.19 C 1038 989.358 1031.95 987.841 1025.98 986.108 z"/>
<path transform="translate(0,0)" fill="rgb(135,189,64)" d="M 1057.02 993.134 C 1048.22 981.645 1038.22 971.282 1028.54 960.553 L 949.578 879.585 C 956.166 881.579 962.111 887.751 967.621 891.831 C 1003.5 918.399 1040.16 951.982 1061.67 991.522 L 1061.13 993.998 L 1057.02 993.134 z"/>
<path transform="translate(0,0)" fill="rgb(233,199,141)" d="M 737.042 1511.26 L 1210.7 1511.55 L 1359.53 1511.93 L 1401.44 1511.95 C 1408.65 1511.95 1416.57 1512.59 1423.7 1511.7 L 1423.81 1537.5 C 1423.81 1542.25 1424.17 1547.73 1423.15 1552.36 L 1422.93 1538.92 L 737.858 1537.09 L 737.918 1606.76 C 737.924 1616.19 739.658 1629.43 737.131 1638.25 L 737.042 1511.26 z"/>
<path transform="translate(0,0)" fill="rgb(188,71,73)" d="M 1105.66 993.286 C 1112.44 989.543 1120.62 987.276 1127.91 984.676 C 1138.95 985.113 1150.32 984.444 1161.3 985.513 C 1192.37 988.541 1230.11 999.894 1251.78 1023.29 C 1252.62 1024.19 1253.34 1025.12 1254.02 1026.14 C 1261.54 1029.38 1267.34 1032.31 1270.71 1040.3 C 1272.2 1043.81 1272.21 1046.75 1272.12 1050.48 L 1272.09 1052.08 L 1272.06 1053.04 C 1269.84 1056.23 1267.83 1058.8 1264.67 1061.09 C 1247.24 1073.71 1223.39 1078.79 1202.7 1082.95 C 1154.6 1092.62 1104.36 1095.53 1055.38 1094.45 C 1029.87 1093.88 1004.17 1092.7 978.945 1088.68 C 959.173 1085.53 938.908 1081.16 919.926 1074.79 C 910.651 1071.67 900.681 1067.95 892.833 1062.02 C 889.664 1059.63 887.434 1056.35 885.138 1053.16 C 884.929 1048.61 884.539 1044.58 886.757 1040.42 C 891.084 1032.31 898.451 1028.03 906.856 1025.36 C 910.337 1022.82 913.665 1016.84 916.927 1013.53 C 923.923 1006.43 933.384 1001.71 942.557 998.078 C 969.162 987.537 997.705 986.082 1025.98 986.108 C 1031.95 987.841 1038 989.358 1043.57 992.19 C 1046.92 993.038 1050.18 993.878 1053.61 994.287 C 1061.29 1004.16 1062.58 1016.45 1067.6 1027.68 C 1072.73 1028.72 1081.33 1028.47 1086.38 1026.99 C 1088.72 1017.69 1089.53 1008 1093.1 999.05 C 1097.29 996.166 1100.72 994.62 1105.66 993.286 z"/>
<path transform="translate(0,0)" fill="rgb(124,56,43)" d="M 1043.57 992.19 C 1046.92 993.038 1050.18 993.878 1053.61 994.287 C 1061.29 1004.16 1062.58 1016.45 1067.6 1027.68 C 1054.49 1025.74 1041.58 1023.35 1029.56 1017.46 C 1025.93 1015.68 1020.14 1011.79 1019.18 1007.5 C 1018.8 1005.77 1018.42 1002.48 1019.5 1001 C 1024.26 994.512 1036.19 993.348 1043.57 992.19 z"/>
<path transform="translate(0,0)" fill="rgb(124,56,43)" d="M 1093.1 999.05 C 1097.29 996.166 1100.72 994.62 1105.66 993.286 C 1115.9 993.876 1129.55 994.035 1137.07 1002.13 C 1138.04 1003.16 1138.54 1004.16 1138.94 1005.5 C 1138.01 1010.71 1135.3 1013.84 1130.99 1016.87 C 1120.55 1024.19 1098.98 1027.9 1086.38 1026.99 C 1088.72 1017.69 1089.53 1008 1093.1 999.05 z"/>
<path transform="translate(0,0)" fill="rgb(242,232,207)" d="M 1254.02 1026.14 C 1261.54 1029.38 1267.34 1032.31 1270.71 1040.3 C 1272.2 1043.81 1272.21 1046.75 1272.12 1050.48 L 1272.09 1052.08 L 1272.06 1053.04 C 1269.84 1056.23 1267.83 1058.8 1264.67 1061.09 C 1247.24 1073.71 1223.39 1078.79 1202.7 1082.95 C 1154.6 1092.62 1104.36 1095.53 1055.38 1094.45 C 1029.87 1093.88 1004.17 1092.7 978.945 1088.68 C 959.173 1085.53 938.908 1081.16 919.926 1074.79 C 910.651 1071.67 900.681 1067.95 892.833 1062.02 C 889.664 1059.63 887.434 1056.35 885.138 1053.16 C 884.929 1048.61 884.539 1044.58 886.757 1040.42 C 891.084 1032.31 898.451 1028.03 906.856 1025.36 C 903.928 1031.99 901.675 1037.3 901.417 1044.67 C 905.049 1052.53 916.697 1057.17 924.5 1060 C 939.371 1065.4 955.075 1068.15 970.606 1070.9 C 1037.98 1082.82 1107.19 1081.62 1174.68 1071.28 C 1197.37 1067.81 1221.75 1063.81 1242.68 1053.96 C 1248.56 1051.2 1253.1 1048.53 1256.76 1043 C 1257.79 1036.94 1256.03 1031.8 1254.02 1026.14 z"/>
<path transform="translate(0,0)" fill="rgb(188,71,73)" d="M 433.956 776.561 C 454.64 782.892 476.804 789.127 487.819 809.547 L 490.409 814.92 C 499.903 809.492 511.754 803.868 522.14 800.484 L 564.006 867.58 C 573.813 883.579 582.675 902.784 595 916.896 L 595.416 918.498 L 595.732 981.471 L 595.996 1084.1 L 596.024 1173.74 C 589.595 1166.73 583.634 1161.43 574.494 1158.16 C 565.098 1154.8 554.76 1153.44 545.5 1158.1 C 537.522 1162.11 533.175 1169.67 530.601 1177.89 C 529.895 1180.15 529.187 1181.76 527.93 1183.76 L 524.5 1184.29 C 518.927 1178.69 516.484 1171.41 514.396 1163.96 C 511.277 1152.82 509.854 1141.57 511.108 1130.03 C 514.163 1101.92 527.843 1076.54 521.066 1047.5 C 516.784 1029.15 506.827 1010.67 490.271 1000.67 C 480.286 994.636 466.952 992.224 455.613 995.466 C 431.946 1002.23 421.054 1020.68 410.112 1040.86 C 403.815 1020.35 399.992 999.639 396.95 978.433 L 395.334 937.5 C 395.827 886.829 407.715 838.612 426.914 791.961 L 428.678 787.861 L 433.956 776.561 z"/>
<path transform="translate(0,0)" fill="rgb(222,158,88)" d="M 522.14 800.484 L 564.006 867.58 C 573.813 883.579 582.675 902.784 595 916.896 L 595.416 918.498 L 595.732 981.471 L 595.996 1084.1 C 573.88 1051.09 559.015 1010.94 545.251 973.819 L 513.96 886 C 507.121 865.477 501.157 844.084 492.733 824.173 L 490.409 814.92 C 499.903 809.492 511.754 803.868 522.14 800.484 z"/>
<path transform="translate(0,0)" fill="rgb(188,71,73)" d="M 885.138 1053.16 C 887.434 1056.35 889.664 1059.63 892.833 1062.02 C 900.681 1067.95 910.651 1071.67 919.926 1074.79 C 938.908 1081.16 959.173 1085.53 978.945 1088.68 C 1004.17 1092.7 1029.87 1093.88 1055.38 1094.45 C 1104.36 1095.53 1154.6 1092.62 1202.7 1082.95 C 1223.39 1078.79 1247.24 1073.71 1264.67 1061.09 C 1267.83 1058.8 1269.84 1056.23 1272.06 1053.04 C 1272.03 1068.68 1272.13 1084.51 1270.28 1100.07 C 1264.93 1145.02 1245.6 1186.91 1213.48 1219.06 C 1199.19 1233.36 1182.75 1246.08 1164.55 1255.03 C 1157.7 1258.4 1150.33 1260.79 1143.57 1264.16 C 1142.97 1269.5 1141.78 1276.92 1138.89 1281.5 C 1134.37 1288.65 1125.61 1293.24 1117.52 1294.95 L 1116 1295.25 C 1109.82 1296.56 1103.61 1297.11 1097.32 1297.54 C 1076.81 1298.93 1053.2 1299.14 1033.38 1293.08 C 1027.99 1291.43 1022 1289.08 1017.84 1285.17 C 1011.21 1278.94 1011.89 1271.43 1011.55 1263.02 C 987.074 1252.55 965.557 1240.16 946.471 1221.35 C 918.984 1194.27 898.014 1157.46 890.324 1119.5 C 885.906 1097.69 885.246 1075.33 885.138 1053.16 z"/>
<path transform="translate(0,0)" fill="rgb(242,232,207)" d="M 737.131 1638.25 C 739.658 1629.43 737.924 1616.19 737.918 1606.76 L 737.858 1537.09 L 1422.93 1538.92 L 1423.15 1552.36 C 1422.13 1584.02 1408.16 1616.13 1385.01 1637.95 C 1370.28 1651.85 1353.53 1659.8 1334.06 1664.65 C 1323.01 1667.4 1311.37 1666.9 1300.06 1666.93 L 1255.37 1666.95 L 1117.34 1666.88 L 851.28 1667.05 L 730.127 1666.94 C 733.885 1657.23 736.016 1648.61 737.131 1638.25 z"/>
</svg>